<?xml version="1.0" encoding="utf-8"?>
<!-- Generator: Adobe Illustrator 24.3.0, SVG Export Plug-In . SVG Version: 6.00 Build 0)  -->
<svg version="1.1" id="Layer_1" xmlns="http://www.w3.org/2000/svg" xmlns:xlink="http://www.w3.org/1999/xlink" x="0px" y="0px"
	 viewBox="0 0 1920 240" style="enable-background:new 0 0 1920 240;" xml:space="preserve">
<style type="text/css">
	.st0{opacity:0.5;}
	.st1{clip-path:url(#SVGID_2_);}
	.st2{opacity:0.2;fill:#93C01F;enable-background:new    ;}
	.st3{opacity:0.7;fill:#93C01F;enable-background:new    ;}
	.st4{opacity:0.5;fill:#93C01F;enable-background:new    ;}
	.st5{opacity:0.3;fill:#93C01F;enable-background:new    ;}
	.st6{fill:none;}
	.st7{fill:#93C01F;}
	.st8{opacity:0.1;fill:#93C01F;enable-background:new    ;}
	.st9{fill:none;stroke:#000000;stroke-miterlimit:10;}
</style>
<g class="st0">
	<g>
		<defs>
			<rect id="SVGID_1_" x="-0.5" y="-1" width="1920" height="241.5"/>
		</defs>
		<clipPath id="SVGID_2_">
			<use xlink:href="#SVGID_1_"  style="overflow:visible;"/>
		</clipPath>
		<g class="st1">
			<g>
				<polygon class="st2" points="51,-30.7 -78.9,44.2 17.1,53.8 				"/>
				<polygon class="st3" points="180.9,44.2 51,-30.7 17.1,53.8 				"/>
				<polygon class="st4" points="-78.9,44.2 -78.9,193.9 17.1,53.8 				"/>
				<polygon class="st2" points="-78.9,193.9 51,268.7 17.1,53.8 				"/>
				<polygon class="st4" points="17.1,53.8 180.9,193.9 180.9,44.2 				"/>
				<polygon class="st5" points="51,268.7 180.9,193.9 17.1,53.8 				"/>
			</g>
			<g>
				<polygon class="st6" points="310.8,-28.7 180.9,46.2 357.6,136.2 				"/>
				<polygon class="st4" points="440.7,46.2 310.8,-28.7 357.6,136.2 				"/>
				<polygon class="st7" points="180.9,46.2 180.9,195.9 357.6,136.2 				"/>
				<polygon class="st2" points="180.9,195.9 310.8,270.7 357.6,136.2 				"/>
				<polygon class="st2" points="357.6,136.2 440.7,195.9 440.7,46.2 				"/>
				<polygon class="st5" points="310.8,270.7 440.7,195.9 357.6,136.2 				"/>
			</g>
			<g>
				<polygon class="st4" points="570.6,-28.7 440.7,46.2 521,176.6 				"/>
				<polygon class="st3" points="700.5,46.2 570.6,-28.7 521,176.6 				"/>
				<polygon class="st3" points="440.7,46.2 440.7,195.9 521,176.6 				"/>
				<polygon class="st2" points="440.7,195.9 570.6,270.7 521,176.6 				"/>
				<polygon class="st7" points="521,176.6 700.5,195.9 700.5,46.2 				"/>
				<polygon class="st5" points="570.6,270.7 700.5,195.9 521,176.6 				"/>
			</g>
			<g>
				<polygon class="st6" points="830.4,-28.7 700.5,46.2 800,74 				"/>
				<polygon class="st4" points="960.3,46.2 830.4,-28.7 800,74 				"/>
				<polygon class="st5" points="700.5,46.2 700.5,195.9 800,74 				"/>
				<polygon class="st2" points="700.5,195.9 830.4,270.7 800,74 				"/>
				<polygon class="st3" points="800,74 960.3,195.9 960.3,46.2 				"/>
				<polygon class="st4" points="830.4,270.7 960.3,195.9 800,74 				"/>
			</g>
			<g>
				<polygon class="st6" points="1089.8,-30.7 959.9,44.2 1032.5,176.6 				"/>
				<polygon class="st4" points="1219.7,44.2 1089.8,-30.7 1032.5,176.6 				"/>
				<polygon class="st2" points="959.9,44.2 959.9,193.9 1032.5,176.6 				"/>
				<polygon class="st5" points="959.9,193.9 1089.8,268.7 1032.5,176.6 				"/>
				<polygon class="st2" points="1032.5,176.6 1219.7,193.9 1219.7,44.2 				"/>
				<polygon class="st3" points="1089.8,268.7 1219.7,193.9 1032.5,176.6 				"/>
			</g>
			<g>
				<polygon class="st6" points="1349.2,-30.7 1219.3,44.2 1442,136.2 				"/>
				<polygon class="st5" points="1479.1,44.2 1349.2,-30.7 1442,136.2 				"/>
				<polygon class="st7" points="1219.3,44.2 1219.3,193.9 1442,136.2 				"/>
				<polygon class="st4" points="1219.3,193.9 1349.2,268.7 1442,136.2 				"/>
				<polygon class="st4" points="1442,136.2 1479.1,193.9 1479.1,44.2 				"/>
				<polygon class="st6" points="1349.2,268.7 1479.1,193.9 1442,136.2 				"/>
			</g>
			<g>
				<polygon class="st6" points="1608.6,-30.7 1478.7,44.2 1553,52.8 				"/>
				<polygon class="st6" points="1738.5,44.2 1608.6,-30.7 1553,52.8 				"/>
				<polygon class="st8" points="1478.7,44.2 1478.7,193.9 1553,52.8 				"/>
				<polygon class="st4" points="1478.7,193.9 1608.6,268.7 1553,52.8 				"/>
				<polygon class="st3" points="1553,52.8 1738.5,193.9 1738.5,44.2 				"/>
				<polygon class="st7" points="1608.6,268.7 1738.5,193.9 1553,52.8 				"/>
			</g>
			<g>
				<polygon class="st6" points="1868.4,-28.7 1738.5,46.2 1803.4,187.1 				"/>
				<polygon class="st4" points="1998.3,46.2 1868.4,-28.7 1803.4,187.1 				"/>
				<polygon class="st5" points="1738.5,46.2 1738.5,195.9 1803.4,187.1 				"/>
				<polygon class="st3" points="1738.5,195.9 1868.4,270.7 1803.4,187.1 				"/>
				<polygon class="st3" points="1803.4,187.1 1998.3,195.9 1998.3,46.2 				"/>
				<polygon class="st2" points="1868.4,270.7 1998.3,195.9 1803.4,187.1 				"/>
			</g>
			<g>
				<polygon class="st5" points="181.1,193.9 51.2,268.7 147.2,278.3 				"/>
				<polygon class="st3" points="311,268.7 181.1,193.9 147.2,278.3 				"/>
				<polygon class="st4" points="51.2,268.7 51.2,418.4 147.2,278.3 				"/>
				<polygon class="st9" points="51.2,418.4 181.1,493.2 147.2,278.3 				"/>
				<polygon class="st4" points="147.2,278.3 311,418.4 311,268.7 				"/>
				<polygon class="st3" points="181.1,493.2 311,418.4 147.2,278.3 				"/>
			</g>
			<g>
				<polygon class="st6" points="440.9,195.9 311,270.7 487.7,360.8 				"/>
				<polygon class="st4" points="570.8,270.7 440.9,195.9 487.7,360.8 				"/>
				<polygon class="st7" points="311,270.7 311,420.4 487.7,360.8 				"/>
				<polygon class="st6" points="311,420.4 440.9,495.2 487.7,360.8 				"/>
				<polygon class="st6" points="487.7,360.8 570.8,420.4 570.8,270.7 				"/>
				<polygon class="st6" points="440.9,495.2 570.8,420.4 487.7,360.8 				"/>
			</g>
			<g>
				<polygon class="st4" points="700.7,195.9 570.8,270.7 651.2,401.2 				"/>
				<polygon class="st3" points="830.6,270.7 700.7,195.9 651.2,401.2 				"/>
				<polygon class="st3" points="570.8,270.7 570.8,420.4 651.2,401.2 				"/>
				<polygon class="st9" points="570.8,420.4 700.7,495.2 651.2,401.2 				"/>
				<polygon class="st7" points="651.2,401.2 830.6,420.4 830.6,270.7 				"/>
				<polygon class="st9" points="700.7,495.2 830.6,420.4 651.2,401.2 				"/>
			</g>
			<g>
				<polygon class="st5" points="960.5,195.9 830.6,270.7 930.2,298.5 				"/>
				<polygon class="st4" points="1090.4,270.7 960.5,195.9 930.2,298.5 				"/>
				<polygon class="st4" points="830.6,270.7 830.6,420.4 930.2,298.5 				"/>
				<polygon class="st9" points="830.6,420.4 960.5,495.2 930.2,298.5 				"/>
				<polygon class="st3" points="930.2,298.5 1090.4,420.4 1090.4,270.7 				"/>
				<polygon class="st4" points="960.5,495.2 1090.4,420.4 930.2,298.5 				"/>
			</g>
			<g>
				<polygon class="st5" points="1219.9,193.9 1090,268.7 1162.6,401.2 				"/>
				<polygon class="st4" points="1349.8,268.7 1219.9,193.9 1162.6,401.2 				"/>
				<polygon class="st9" points="1090,268.7 1090,418.4 1162.6,401.2 				"/>
				<polygon class="st9" points="1090,418.4 1219.9,493.2 1162.6,401.2 				"/>
				<polygon class="st9" points="1162.6,401.2 1349.8,418.4 1349.8,268.7 				"/>
				<polygon class="st3" points="1219.9,493.2 1349.8,418.4 1162.6,401.2 				"/>
			</g>
			<g>
				<polygon class="st8" points="1479.3,193.9 1349.4,268.7 1572.1,360.8 				"/>
				<polygon class="st6" points="1609.2,268.7 1479.3,193.9 1572.1,360.8 				"/>
				<polygon class="st7" points="1349.4,268.7 1349.4,418.4 1572.1,360.8 				"/>
				<polygon class="st4" points="1349.4,418.4 1479.3,493.2 1572.1,360.8 				"/>
				<polygon class="st4" points="1572.1,360.8 1609.2,418.4 1609.2,268.7 				"/>
				<polygon class="st6" points="1479.3,493.2 1609.2,418.4 1572.1,360.8 				"/>
			</g>
			<g>
				<polygon class="st2" points="1738.7,193.9 1608.8,268.7 1683.1,277.3 				"/>
				<polygon class="st5" points="1868.6,268.7 1738.7,193.9 1683.1,277.3 				"/>
				<polygon class="st9" points="1608.8,268.7 1608.8,418.4 1683.1,277.3 				"/>
				<polygon class="st4" points="1608.8,418.4 1738.7,493.2 1683.1,277.3 				"/>
				<polygon class="st3" points="1683.1,277.3 1868.6,418.4 1868.6,268.7 				"/>
				<polygon class="st7" points="1738.7,493.2 1868.6,418.4 1683.1,277.3 				"/>
			</g>
			<g>
				<polygon class="st9" points="181.1,-254.8 51.2,-179.9 147.2,-170.3 				"/>
				<polygon class="st3" points="311,-179.9 181.1,-254.8 147.2,-170.3 				"/>
				<polygon class="st4" points="51.2,-179.9 51.2,-30.2 147.2,-170.3 				"/>
				<polygon class="st2" points="51.2,-30.2 181.1,44.6 147.2,-170.3 				"/>
				<polygon class="st4" points="147.2,-170.3 311,-30.2 311,-179.9 				"/>
				<polygon class="st3" points="181.1,44.6 311,-30.2 147.2,-170.3 				"/>
			</g>
			<g>
				<polygon class="st9" points="440.9,-252.8 311,-177.9 487.7,-87.9 				"/>
				<polygon class="st4" points="570.8,-177.9 440.9,-252.8 487.7,-87.9 				"/>
				<polygon class="st7" points="311,-177.9 311,-28.2 487.7,-87.9 				"/>
				<polygon class="st5" points="311,-28.2 440.9,46.6 487.7,-87.9 				"/>
				<polygon class="st9" points="487.7,-87.9 570.8,-28.2 570.8,-177.9 				"/>
				<polygon class="st8" points="440.9,46.6 570.8,-28.2 487.7,-87.9 				"/>
			</g>
			<g>
				<polygon class="st4" points="700.7,-252.8 570.8,-177.9 651.2,-47.4 				"/>
				<polygon class="st3" points="830.6,-177.9 700.7,-252.8 651.2,-47.4 				"/>
				<polygon class="st3" points="570.8,-177.9 570.8,-28.2 651.2,-47.4 				"/>
				<polygon class="st2" points="570.8,-28.2 700.7,46.6 651.2,-47.4 				"/>
				<polygon class="st7" points="651.2,-47.4 830.6,-28.2 830.6,-177.9 				"/>
				<polygon class="st5" points="700.7,46.6 830.6,-28.2 651.2,-47.4 				"/>
			</g>
			<g>
				<polygon class="st6" points="960.5,-252.8 830.6,-177.9 930.2,-150.1 				"/>
				<polygon class="st4" points="1090.4,-177.9 960.5,-252.8 930.2,-150.1 				"/>
				<polygon class="st4" points="830.6,-177.9 830.6,-28.2 930.2,-150.1 				"/>
				<polygon class="st6" points="830.6,-28.2 960.5,46.6 930.2,-150.1 				"/>
				<polygon class="st3" points="930.2,-150.1 1090.4,-28.2 1090.4,-177.9 				"/>
				<polygon class="st4" points="960.5,46.6 1090.4,-28.2 930.2,-150.1 				"/>
			</g>
			<g>
				<polygon class="st9" points="1219.9,-254.8 1090,-179.9 1162.6,-47.4 				"/>
				<polygon class="st4" points="1349.8,-179.9 1219.9,-254.8 1162.6,-47.4 				"/>
				<polygon class="st9" points="1090,-179.9 1090,-30.2 1162.6,-47.4 				"/>
				<polygon class="st8" points="1090,-30.2 1219.9,44.6 1162.6,-47.4 				"/>
				<polygon class="st9" points="1162.6,-47.4 1349.8,-30.2 1349.8,-179.9 				"/>
				<polygon class="st3" points="1219.9,44.6 1349.8,-30.2 1162.6,-47.4 				"/>
			</g>
			<g>
				<polygon class="st9" points="1479.3,-254.8 1349.4,-179.9 1572.1,-87.9 				"/>
				<polygon class="st9" points="1609.2,-179.9 1479.3,-254.8 1572.1,-87.9 				"/>
				<polygon class="st7" points="1349.4,-179.9 1349.4,-30.2 1572.1,-87.9 				"/>
				<polygon class="st4" points="1349.4,-30.2 1479.3,44.6 1572.1,-87.9 				"/>
				<polygon class="st4" points="1572.1,-87.9 1609.2,-30.2 1609.2,-179.9 				"/>
				<polygon class="st8" points="1479.3,44.6 1609.2,-30.2 1572.1,-87.9 				"/>
			</g>
			<g>
				<polygon class="st9" points="1738.7,-254.8 1608.8,-179.9 1683.1,-171.3 				"/>
				<polygon class="st9" points="1868.6,-179.9 1738.7,-254.8 1683.1,-171.3 				"/>
				<polygon class="st9" points="1608.8,-179.9 1608.8,-30.2 1683.1,-171.3 				"/>
				<polygon class="st4" points="1608.8,-30.2 1738.7,44.6 1683.1,-171.3 				"/>
				<polygon class="st3" points="1683.1,-171.3 1868.6,-30.2 1868.6,-179.9 				"/>
				<polygon class="st7" points="1738.7,44.6 1868.6,-30.2 1683.1,-171.3 				"/>
			</g>
			<g>
				<polygon class="st9" points="1998.5,-252.8 1868.6,-177.9 1933.5,-37 				"/>
				<polygon class="st4" points="2128.4,-177.9 1998.5,-252.8 1933.5,-37 				"/>
				<polygon class="st9" points="1868.6,-177.9 1868.6,-28.2 1933.5,-37 				"/>
				<polygon class="st3" points="1868.6,-28.2 1998.5,46.6 1933.5,-37 				"/>
				<polygon class="st3" points="1933.5,-37 2128.4,-28.2 2128.4,-177.9 				"/>
				<polygon class="st9" points="1998.5,46.6 2128.4,-28.2 1933.5,-37 				"/>
			</g>
		</g>
	</g>
</g>
</svg>
