<?xml version="1.0" encoding="utf-8"?>
<!-- Generator: Adobe Illustrator 24.3.0, SVG Export Plug-In . SVG Version: 6.00 Build 0)  -->
<svg version="1.1" id="Layer_1" xmlns="http://www.w3.org/2000/svg" xmlns:xlink="http://www.w3.org/1999/xlink" x="0px" y="0px"
	 viewBox="0 0 216.56 82" style="enable-background:new 0 0 216.56 82;" xml:space="preserve">
<style type="text/css">
	.st0{fill:#FFFFFF;}
	.st1{fill:#22486A;}
</style>
<g>
	<g>
		<path class="st0" d="M0.42,0.06H14c0,24.23,0,48.46,0,72.69c-4.53,0-9.06,0-13.58,0C0.42,48.52,0.43,24.29,0.42,0.06z"/>
		<path class="st0" d="M152.34,44.7c4.51-2.5,9.96-3.24,15.14-2.78c5.09,0.39,10.21,2.31,13.55,5.95c-2.6,1.94-5.22,3.86-7.83,5.8
			c-1.62-1.69-3.77-3.05-6.23-3.42c-2.67-0.39-5.64,0.04-7.69,1.74c-1.68,1.33-2.52,3.38-2.53,5.38c-0.08,2.04,0.59,4.19,2.24,5.62
			c2.04,1.91,5.19,2.42,7.97,2c2.46-0.37,4.61-1.72,6.23-3.42c2.61,1.94,5.23,3.85,7.83,5.8c-3.06,3.35-7.65,5.24-12.31,5.82
			c-5.01,0.57-10.29,0.2-14.86-1.9c-3.03-1.33-5.67-3.43-7.39-6.09c-2.21-3.35-2.71-7.51-1.73-11.29
			C145.75,50.04,148.65,46.71,152.34,44.7z"/>
		<path class="st0" d="M18.35,42.49c3.39,0,6.79,0,10.18,0c3.92,5.36,7.89,10.69,11.82,16.04c3.12-4.37,6.26-8.73,9.39-13.09
			c0.75-0.96,1.35-2.02,2.18-2.92c3.38-0.06,6.76-0.01,10.15-0.02c0,5.76,0,11.51,0,17.27c0.14,4.33,0.04,8.66,0.07,12.99
			c-3.75,0-7.5,0-11.26,0c-0.08-4.54-0.01-9.08-0.14-13.62c-2.6,3.62-5.2,7.24-7.78,10.87c-1.85,0-3.7,0.01-5.55-0.01
			c-2.6-3.49-5.22-6.97-7.82-10.46c0.01,4.41,0,8.81,0,13.22c-3.75,0.01-7.49-0.01-11.24,0.01C18.34,62.67,18.35,52.58,18.35,42.49z
			"/>
		<g>
			<path class="st0" d="M67.97,42.48c6.15,0.01,12.29-0.01,18.44,0.01c4.43,0.11,9.14,1.08,12.46,3.95
				c4.24,3.65,4.49,10.4,0.61,14.35c-2.2,2.28-5.41,3.52-8.61,4.1c-3.45,0.65-6.99,0.35-10.48,0.42c0,2.48,0,4.96,0,7.44
				c-4.14,0-8.27,0-12.41,0C67.97,62.67,67.97,52.57,67.97,42.48z M80.38,50.43c0,2.34,0,4.67,0,7.01c2.02-0.05,4.04,0.12,6.05-0.15
				c1.3-0.18,2.62-0.88,3.07-2.07c0.47-1.24,0.28-2.8-0.81-3.73c-0.96-0.8-2.31-1.04-3.56-1.06C83.55,50.42,81.97,50.43,80.38,50.43
				z"/>
		</g>
		<g>
			<path class="st0" d="M116.3,42.48c4.05,0.02,8.09,0,12.14,0.01c5.3,10.1,10.66,20.17,15.95,30.27c-4.27,0-8.53,0-12.8,0
				c-0.8-1.74-1.63-3.48-2.42-5.23c-4.6-0.02-9.2,0-13.8-0.01c-0.84,1.74-1.62,3.51-2.46,5.25c-4.2-0.01-8.39,0-12.59,0
				C105.64,62.66,110.96,52.56,116.3,42.48z M118.81,60.05c2.3,0,4.6,0,6.9,0c-1.16-2.43-2.24-4.89-3.43-7.31
				C121.01,55.13,119.98,57.62,118.81,60.05z"/>
		</g>
		<path class="st0" d="M182.8,43.2c24.68,0,9.08,0,33.76,0v7.94c-17.01,0,6.26,0-10.76,0c0,7.42,0,14.84,0,22.27
			c-4.12,0-8.23,0-12.35,0c0-7.42,0-14.84,0-22.27c-3.55,0-7.1,0-10.65,0C182.8,48.49,182.8,45.85,182.8,43.2z"/>
	</g>
	<g>
		<g>
			<path class="st1" d="M21.99,12.37c3.64,0,7.28,0,10.91,0c3.98-0.19,8.53,0.9,10.79,4.14c1.34,1.87,1.58,4.22,1.28,6.4
				c-0.33,1.95-1.41,3.82-3.11,5.05c-1.88,1.36-4.26,2.05-6.63,2.24c-2.68,0.09-5.37,0.01-8.06,0.04c0,2.46,0,4.92,0,7.38
				c-1.73,0-3.46,0-5.2,0C21.99,29.2,21.99,20.79,21.99,12.37z M27.19,16.26c-0.01,3.31,0,6.62-0.01,9.92
				c2.69-0.04,5.4,0.13,8.07-0.21c1.86-0.26,3.73-1.3,4.31-3.02c0.53-1.68,0.37-3.72-1.01-5.04c-1.25-1.21-3.14-1.59-4.89-1.64
				C31.51,16.24,29.35,16.28,27.19,16.26z"/>
		</g>
		<path class="st1" d="M50.04,12.37c1.73,0,3.46,0,5.2,0c0,7.12-0.01,14.24,0,21.35c4.79,0,9.58,0,14.37,0
			c0.01,1.3,0.01,2.59,0,3.89c-6.52,0-13.05,0-19.57,0C50.04,29.2,50.04,20.79,50.04,12.37z"/>
		<g>
			<path class="st1" d="M85.5,12.38c1.74-0.02,3.48-0.02,5.21,0c4.09,8.42,8.26,16.81,12.37,25.23c-1.82,0-3.65,0-5.47,0
				c-0.91-1.87-1.82-3.75-2.72-5.63c-4.55,0-9.1,0-13.65,0c-0.91,1.87-1.8,3.76-2.69,5.63c-1.8,0-3.6,0-5.4,0
				C77.27,29.2,81.42,20.81,85.5,12.38z M82.99,28.09c3.4,0,6.79,0,10.19,0c-1.7-3.59-3.42-7.17-5.11-10.75
				C86.37,20.92,84.69,24.51,82.99,28.09z"/>
		</g>
		<path class="st1" d="M106.42,12.37c1.44,0,2.89,0,4.33,0c5.01,5.66,9.99,11.34,15,17.01c0-5.67,0-11.34,0-17
			c1.73-0.01,3.46,0,5.19,0c0,8.41,0,16.83,0,25.24c-1.34-0.02-2.67,0.04-4-0.01c-0.35,0.05-0.54-0.27-0.75-0.46
			c-4.85-5.43-9.73-10.84-14.6-16.27c-0.01,5.58,0,11.15,0,16.73c-1.72,0-3.44,0-5.15,0C106.42,29.2,106.42,20.79,106.42,12.37z"/>
		<path class="st1" d="M138.11,12.37c6.72,0,13.44,0,20.16,0c0.01,1.3,0.01,2.59,0,3.89c-4.99,0.01-9.97,0-14.96,0
			c-0.01,2.2,0,4.39,0,6.59c4.42,0,8.83,0,13.25,0c0,1.3,0,2.59,0,3.89c-4.42,0-8.83,0-13.25,0c-0.01,2.33-0.01,4.66,0,6.98
			c5.18,0,10.36,0,15.54,0c0,1.3,0,2.59,0,3.89c-6.91,0-13.83,0-20.74,0C138.11,29.2,138.11,20.79,138.11,12.37z"/>
		<path class="st1" d="M161.85,12.37c7.81,0,15.63,0,23.44,0c0,1.3,0,2.59-0.01,3.89c-3.03,0.01-6.06,0-9.09,0
			c0.01,7.12,0,14.23,0.01,21.35c-1.75,0-3.5,0-5.26,0c0.01-7.12,0-14.23,0.01-21.35c-3.03,0-6.06,0-9.09,0
			C161.85,14.97,161.85,13.67,161.85,12.37z"/>
	</g>
</g>
</svg>
